<mxfile host="65bd71144e">
    <diagram id="rNlksn1WPZeVqBZFMjEH" name="Page-1">
        <mxGraphModel dx="807" dy="475" grid="1" gridSize="10" guides="1" tooltips="1" connect="1" arrows="1" fold="1" page="1" pageScale="1" pageWidth="827" pageHeight="1169" math="0" shadow="0">
            <root>
                <mxCell id="0"/>
                <mxCell id="1" parent="0"/>
                <mxCell id="2" value="" style="endArrow=none;dashed=1;html=1;" parent="1" edge="1">
                    <mxGeometry width="50" height="50" relative="1" as="geometry">
                        <mxPoint x="220" y="670" as="sourcePoint"/>
                        <mxPoint x="220" y="5" as="targetPoint"/>
                    </mxGeometry>
                </mxCell>
                <mxCell id="18" style="edgeStyle=none;shape=link;html=1;exitX=1;exitY=0.5;exitDx=0;exitDy=0;entryX=0;entryY=0.5;entryDx=0;entryDy=0;" edge="1" parent="1" source="4" target="11">
                    <mxGeometry relative="1" as="geometry"/>
                </mxCell>
                <mxCell id="4" value="Users" style="swimlane;" vertex="1" parent="1">
                    <mxGeometry x="80" y="40" width="120" height="60" as="geometry"/>
                </mxCell>
                <mxCell id="5" value="Posts" style="swimlane;" vertex="1" parent="1">
                    <mxGeometry x="640" y="5" width="120" height="60" as="geometry"/>
                </mxCell>
                <mxCell id="7" value="Comments" style="swimlane;" vertex="1" parent="1">
                    <mxGeometry x="640" y="100" width="120" height="60" as="geometry"/>
                </mxCell>
                <mxCell id="9" value="Season_names" style="swimlane;" vertex="1" parent="1">
                    <mxGeometry x="80" y="155" width="120" height="60" as="geometry"/>
                </mxCell>
                <mxCell id="10" value="Teams" style="swimlane;" vertex="1" parent="1">
                    <mxGeometry x="227" y="260" width="600" height="170" as="geometry"/>
                </mxCell>
                <mxCell id="34" value="" style="shape=table;startSize=0;container=1;collapsible=0;childLayout=tableLayout;rounded=0;glass=0;sketch=0;fontFamily=Helvetica;fontSize=12;fontColor=default;strokeWidth=4;fillColor=none;gradientColor=none;html=1;" vertex="1" parent="10">
                    <mxGeometry x="6.5" y="30" width="587" height="120" as="geometry"/>
                </mxCell>
                <mxCell id="35" value="" style="shape=partialRectangle;collapsible=0;dropTarget=0;pointerEvents=0;fillColor=none;top=0;left=0;bottom=0;right=0;points=[[0,0.5],[1,0.5]];portConstraint=eastwest;rounded=0;glass=0;sketch=0;fontFamily=Helvetica;fontSize=12;fontColor=default;strokeWidth=4;html=1;" vertex="1" parent="34">
                    <mxGeometry width="587" height="40" as="geometry"/>
                </mxCell>
                <mxCell id="36" value="Select Season" style="shape=partialRectangle;html=1;whiteSpace=wrap;connectable=0;overflow=hidden;fillColor=none;top=0;left=0;bottom=0;right=0;pointerEvents=1;rounded=0;glass=0;sketch=0;fontFamily=Helvetica;fontSize=12;fontColor=default;strokeWidth=4;" vertex="1" parent="35">
                    <mxGeometry width="59" height="40" as="geometry">
                        <mxRectangle width="59" height="40" as="alternateBounds"/>
                    </mxGeometry>
                </mxCell>
                <mxCell id="37" value="Manager" style="shape=partialRectangle;html=1;whiteSpace=wrap;connectable=0;overflow=hidden;fillColor=none;top=0;left=0;bottom=0;right=0;pointerEvents=1;rounded=0;glass=0;sketch=0;fontFamily=Helvetica;fontSize=12;fontColor=default;strokeWidth=4;" vertex="1" parent="35">
                    <mxGeometry x="59" width="59" height="40" as="geometry">
                        <mxRectangle width="59" height="40" as="alternateBounds"/>
                    </mxGeometry>
                </mxCell>
                <mxCell id="38" value="&lt;span&gt;name&lt;/span&gt;" style="shape=partialRectangle;html=1;whiteSpace=wrap;connectable=0;overflow=hidden;fillColor=none;top=0;left=0;bottom=0;right=0;pointerEvents=1;rounded=0;glass=0;sketch=0;fontFamily=Helvetica;fontSize=12;fontColor=default;strokeWidth=4;" vertex="1" parent="35">
                    <mxGeometry x="118" width="58" height="40" as="geometry">
                        <mxRectangle width="58" height="40" as="alternateBounds"/>
                    </mxGeometry>
                </mxCell>
                <mxCell id="62" value="&lt;span&gt;number of matches&lt;/span&gt;" style="shape=partialRectangle;html=1;whiteSpace=wrap;connectable=0;overflow=hidden;fillColor=none;top=0;left=0;bottom=0;right=0;pointerEvents=1;rounded=0;glass=0;sketch=0;fontFamily=Helvetica;fontSize=12;fontColor=default;strokeWidth=4;" vertex="1" parent="35">
                    <mxGeometry x="176" width="58" height="40" as="geometry">
                        <mxRectangle width="58" height="40" as="alternateBounds"/>
                    </mxGeometry>
                </mxCell>
                <mxCell id="39" value="Points" style="shape=partialRectangle;html=1;whiteSpace=wrap;connectable=0;overflow=hidden;fillColor=none;top=0;left=0;bottom=0;right=0;pointerEvents=1;rounded=0;glass=0;sketch=0;fontFamily=Helvetica;fontSize=12;fontColor=default;strokeWidth=4;" vertex="1" parent="35">
                    <mxGeometry x="234" width="59" height="40" as="geometry">
                        <mxRectangle width="59" height="40" as="alternateBounds"/>
                    </mxGeometry>
                </mxCell>
                <mxCell id="40" value="win" style="shape=partialRectangle;html=1;whiteSpace=wrap;connectable=0;overflow=hidden;fillColor=none;top=0;left=0;bottom=0;right=0;pointerEvents=1;rounded=0;glass=0;sketch=0;fontFamily=Helvetica;fontSize=12;fontColor=default;strokeWidth=4;" vertex="1" parent="35">
                    <mxGeometry x="293" width="59" height="40" as="geometry">
                        <mxRectangle width="59" height="40" as="alternateBounds"/>
                    </mxGeometry>
                </mxCell>
                <mxCell id="41" value="draws" style="shape=partialRectangle;html=1;whiteSpace=wrap;connectable=0;overflow=hidden;fillColor=none;top=0;left=0;bottom=0;right=0;pointerEvents=1;rounded=0;glass=0;sketch=0;fontFamily=Helvetica;fontSize=12;fontColor=default;strokeWidth=4;" vertex="1" parent="35">
                    <mxGeometry x="352" width="59" height="40" as="geometry">
                        <mxRectangle width="59" height="40" as="alternateBounds"/>
                    </mxGeometry>
                </mxCell>
                <mxCell id="42" value="losses" style="shape=partialRectangle;html=1;whiteSpace=wrap;connectable=0;overflow=hidden;fillColor=none;top=0;left=0;bottom=0;right=0;pointerEvents=1;rounded=0;glass=0;sketch=0;fontFamily=Helvetica;fontSize=12;fontColor=default;strokeWidth=4;" vertex="1" parent="35">
                    <mxGeometry x="411" width="58" height="40" as="geometry">
                        <mxRectangle width="58" height="40" as="alternateBounds"/>
                    </mxGeometry>
                </mxCell>
                <mxCell id="43" value="score +" style="shape=partialRectangle;html=1;whiteSpace=wrap;connectable=0;overflow=hidden;fillColor=none;top=0;left=0;bottom=0;right=0;pointerEvents=1;rounded=0;glass=0;sketch=0;fontFamily=Helvetica;fontSize=12;fontColor=default;strokeWidth=4;" vertex="1" parent="35">
                    <mxGeometry x="469" width="59" height="40" as="geometry">
                        <mxRectangle width="59" height="40" as="alternateBounds"/>
                    </mxGeometry>
                </mxCell>
                <mxCell id="65" value="score -" style="shape=partialRectangle;html=1;whiteSpace=wrap;connectable=0;overflow=hidden;fillColor=none;top=0;left=0;bottom=0;right=0;pointerEvents=1;rounded=0;glass=0;sketch=0;fontFamily=Helvetica;fontSize=12;fontColor=default;strokeWidth=4;" vertex="1" parent="35">
                    <mxGeometry x="528" width="59" height="40" as="geometry">
                        <mxRectangle width="59" height="40" as="alternateBounds"/>
                    </mxGeometry>
                </mxCell>
                <mxCell id="44" value="" style="shape=partialRectangle;collapsible=0;dropTarget=0;pointerEvents=0;fillColor=none;top=0;left=0;bottom=0;right=0;points=[[0,0.5],[1,0.5]];portConstraint=eastwest;rounded=0;glass=0;sketch=0;fontFamily=Helvetica;fontSize=12;fontColor=default;strokeWidth=4;html=1;" vertex="1" parent="34">
                    <mxGeometry y="40" width="587" height="40" as="geometry"/>
                </mxCell>
                <mxCell id="45" value="" style="shape=partialRectangle;html=1;whiteSpace=wrap;connectable=0;overflow=hidden;fillColor=none;top=0;left=0;bottom=0;right=0;pointerEvents=1;rounded=0;glass=0;sketch=0;fontFamily=Helvetica;fontSize=12;fontColor=default;strokeWidth=4;" vertex="1" parent="44">
                    <mxGeometry width="59" height="40" as="geometry">
                        <mxRectangle width="59" height="40" as="alternateBounds"/>
                    </mxGeometry>
                </mxCell>
                <mxCell id="46" value="" style="shape=partialRectangle;html=1;whiteSpace=wrap;connectable=0;overflow=hidden;fillColor=none;top=0;left=0;bottom=0;right=0;pointerEvents=1;rounded=0;glass=0;sketch=0;fontFamily=Helvetica;fontSize=12;fontColor=default;strokeWidth=4;" vertex="1" parent="44">
                    <mxGeometry x="59" width="59" height="40" as="geometry">
                        <mxRectangle width="59" height="40" as="alternateBounds"/>
                    </mxGeometry>
                </mxCell>
                <mxCell id="47" value="A" style="shape=partialRectangle;html=1;whiteSpace=wrap;connectable=0;overflow=hidden;fillColor=none;top=0;left=0;bottom=0;right=0;pointerEvents=1;rounded=0;glass=0;sketch=0;fontFamily=Helvetica;fontSize=12;fontColor=default;strokeWidth=4;" vertex="1" parent="44">
                    <mxGeometry x="118" width="58" height="40" as="geometry">
                        <mxRectangle width="58" height="40" as="alternateBounds"/>
                    </mxGeometry>
                </mxCell>
                <mxCell id="63" value="0" style="shape=partialRectangle;html=1;whiteSpace=wrap;connectable=0;overflow=hidden;fillColor=none;top=0;left=0;bottom=0;right=0;pointerEvents=1;rounded=0;glass=0;sketch=0;fontFamily=Helvetica;fontSize=12;fontColor=default;strokeWidth=4;" vertex="1" parent="44">
                    <mxGeometry x="176" width="58" height="40" as="geometry">
                        <mxRectangle width="58" height="40" as="alternateBounds"/>
                    </mxGeometry>
                </mxCell>
                <mxCell id="48" value="" style="shape=partialRectangle;html=1;whiteSpace=wrap;connectable=0;overflow=hidden;fillColor=none;top=0;left=0;bottom=0;right=0;pointerEvents=1;rounded=0;glass=0;sketch=0;fontFamily=Helvetica;fontSize=12;fontColor=default;strokeWidth=4;" vertex="1" parent="44">
                    <mxGeometry x="234" width="59" height="40" as="geometry">
                        <mxRectangle width="59" height="40" as="alternateBounds"/>
                    </mxGeometry>
                </mxCell>
                <mxCell id="49" value="" style="shape=partialRectangle;html=1;whiteSpace=wrap;connectable=0;overflow=hidden;fillColor=none;top=0;left=0;bottom=0;right=0;pointerEvents=1;rounded=0;glass=0;sketch=0;fontFamily=Helvetica;fontSize=12;fontColor=default;strokeWidth=4;" vertex="1" parent="44">
                    <mxGeometry x="293" width="59" height="40" as="geometry">
                        <mxRectangle width="59" height="40" as="alternateBounds"/>
                    </mxGeometry>
                </mxCell>
                <mxCell id="50" value="" style="shape=partialRectangle;html=1;whiteSpace=wrap;connectable=0;overflow=hidden;fillColor=none;top=0;left=0;bottom=0;right=0;pointerEvents=1;rounded=0;glass=0;sketch=0;fontFamily=Helvetica;fontSize=12;fontColor=default;strokeWidth=4;" vertex="1" parent="44">
                    <mxGeometry x="352" width="59" height="40" as="geometry">
                        <mxRectangle width="59" height="40" as="alternateBounds"/>
                    </mxGeometry>
                </mxCell>
                <mxCell id="51" value="" style="shape=partialRectangle;html=1;whiteSpace=wrap;connectable=0;overflow=hidden;fillColor=none;top=0;left=0;bottom=0;right=0;pointerEvents=1;rounded=0;glass=0;sketch=0;fontFamily=Helvetica;fontSize=12;fontColor=default;strokeWidth=4;" vertex="1" parent="44">
                    <mxGeometry x="411" width="58" height="40" as="geometry">
                        <mxRectangle width="58" height="40" as="alternateBounds"/>
                    </mxGeometry>
                </mxCell>
                <mxCell id="52" value="" style="shape=partialRectangle;html=1;whiteSpace=wrap;connectable=0;overflow=hidden;fillColor=none;top=0;left=0;bottom=0;right=0;pointerEvents=1;rounded=0;glass=0;sketch=0;fontFamily=Helvetica;fontSize=12;fontColor=default;strokeWidth=4;" vertex="1" parent="44">
                    <mxGeometry x="469" width="59" height="40" as="geometry">
                        <mxRectangle width="59" height="40" as="alternateBounds"/>
                    </mxGeometry>
                </mxCell>
                <mxCell id="66" style="shape=partialRectangle;html=1;whiteSpace=wrap;connectable=0;overflow=hidden;fillColor=none;top=0;left=0;bottom=0;right=0;pointerEvents=1;rounded=0;glass=0;sketch=0;fontFamily=Helvetica;fontSize=12;fontColor=default;strokeWidth=4;" vertex="1" parent="44">
                    <mxGeometry x="528" width="59" height="40" as="geometry">
                        <mxRectangle width="59" height="40" as="alternateBounds"/>
                    </mxGeometry>
                </mxCell>
                <mxCell id="53" value="" style="shape=partialRectangle;collapsible=0;dropTarget=0;pointerEvents=0;fillColor=none;top=0;left=0;bottom=0;right=0;points=[[0,0.5],[1,0.5]];portConstraint=eastwest;rounded=0;glass=0;sketch=0;fontFamily=Helvetica;fontSize=12;fontColor=default;strokeWidth=4;html=1;" vertex="1" parent="34">
                    <mxGeometry y="80" width="587" height="40" as="geometry"/>
                </mxCell>
                <mxCell id="54" value="" style="shape=partialRectangle;html=1;whiteSpace=wrap;connectable=0;overflow=hidden;fillColor=none;top=0;left=0;bottom=0;right=0;pointerEvents=1;rounded=0;glass=0;sketch=0;fontFamily=Helvetica;fontSize=12;fontColor=default;strokeWidth=4;" vertex="1" parent="53">
                    <mxGeometry width="59" height="40" as="geometry">
                        <mxRectangle width="59" height="40" as="alternateBounds"/>
                    </mxGeometry>
                </mxCell>
                <mxCell id="55" value="" style="shape=partialRectangle;html=1;whiteSpace=wrap;connectable=0;overflow=hidden;fillColor=none;top=0;left=0;bottom=0;right=0;pointerEvents=1;rounded=0;glass=0;sketch=0;fontFamily=Helvetica;fontSize=12;fontColor=default;strokeWidth=4;" vertex="1" parent="53">
                    <mxGeometry x="59" width="59" height="40" as="geometry">
                        <mxRectangle width="59" height="40" as="alternateBounds"/>
                    </mxGeometry>
                </mxCell>
                <mxCell id="56" value="B" style="shape=partialRectangle;html=1;whiteSpace=wrap;connectable=0;overflow=hidden;fillColor=none;top=0;left=0;bottom=0;right=0;pointerEvents=1;rounded=0;glass=0;sketch=0;fontFamily=Helvetica;fontSize=12;fontColor=default;strokeWidth=4;" vertex="1" parent="53">
                    <mxGeometry x="118" width="58" height="40" as="geometry">
                        <mxRectangle width="58" height="40" as="alternateBounds"/>
                    </mxGeometry>
                </mxCell>
                <mxCell id="64" value="0" style="shape=partialRectangle;html=1;whiteSpace=wrap;connectable=0;overflow=hidden;fillColor=none;top=0;left=0;bottom=0;right=0;pointerEvents=1;rounded=0;glass=0;sketch=0;fontFamily=Helvetica;fontSize=12;fontColor=default;strokeWidth=4;" vertex="1" parent="53">
                    <mxGeometry x="176" width="58" height="40" as="geometry">
                        <mxRectangle width="58" height="40" as="alternateBounds"/>
                    </mxGeometry>
                </mxCell>
                <mxCell id="57" value="" style="shape=partialRectangle;html=1;whiteSpace=wrap;connectable=0;overflow=hidden;fillColor=none;top=0;left=0;bottom=0;right=0;pointerEvents=1;rounded=0;glass=0;sketch=0;fontFamily=Helvetica;fontSize=12;fontColor=default;strokeWidth=4;" vertex="1" parent="53">
                    <mxGeometry x="234" width="59" height="40" as="geometry">
                        <mxRectangle width="59" height="40" as="alternateBounds"/>
                    </mxGeometry>
                </mxCell>
                <mxCell id="58" value="" style="shape=partialRectangle;html=1;whiteSpace=wrap;connectable=0;overflow=hidden;fillColor=none;top=0;left=0;bottom=0;right=0;pointerEvents=1;rounded=0;glass=0;sketch=0;fontFamily=Helvetica;fontSize=12;fontColor=default;strokeWidth=4;" vertex="1" parent="53">
                    <mxGeometry x="293" width="59" height="40" as="geometry">
                        <mxRectangle width="59" height="40" as="alternateBounds"/>
                    </mxGeometry>
                </mxCell>
                <mxCell id="59" value="" style="shape=partialRectangle;html=1;whiteSpace=wrap;connectable=0;overflow=hidden;fillColor=none;top=0;left=0;bottom=0;right=0;pointerEvents=1;rounded=0;glass=0;sketch=0;fontFamily=Helvetica;fontSize=12;fontColor=default;strokeWidth=4;" vertex="1" parent="53">
                    <mxGeometry x="352" width="59" height="40" as="geometry">
                        <mxRectangle width="59" height="40" as="alternateBounds"/>
                    </mxGeometry>
                </mxCell>
                <mxCell id="60" value="" style="shape=partialRectangle;html=1;whiteSpace=wrap;connectable=0;overflow=hidden;fillColor=none;top=0;left=0;bottom=0;right=0;pointerEvents=1;rounded=0;glass=0;sketch=0;fontFamily=Helvetica;fontSize=12;fontColor=default;strokeWidth=4;" vertex="1" parent="53">
                    <mxGeometry x="411" width="58" height="40" as="geometry">
                        <mxRectangle width="58" height="40" as="alternateBounds"/>
                    </mxGeometry>
                </mxCell>
                <mxCell id="61" value="" style="shape=partialRectangle;html=1;whiteSpace=wrap;connectable=0;overflow=hidden;fillColor=none;top=0;left=0;bottom=0;right=0;pointerEvents=1;rounded=0;glass=0;sketch=0;fontFamily=Helvetica;fontSize=12;fontColor=default;strokeWidth=4;" vertex="1" parent="53">
                    <mxGeometry x="469" width="59" height="40" as="geometry">
                        <mxRectangle width="59" height="40" as="alternateBounds"/>
                    </mxGeometry>
                </mxCell>
                <mxCell id="67" style="shape=partialRectangle;html=1;whiteSpace=wrap;connectable=0;overflow=hidden;fillColor=none;top=0;left=0;bottom=0;right=0;pointerEvents=1;rounded=0;glass=0;sketch=0;fontFamily=Helvetica;fontSize=12;fontColor=default;strokeWidth=4;" vertex="1" parent="53">
                    <mxGeometry x="528" width="59" height="40" as="geometry">
                        <mxRectangle width="59" height="40" as="alternateBounds"/>
                    </mxGeometry>
                </mxCell>
                <mxCell id="11" value="Managers" style="swimlane;" vertex="1" parent="1">
                    <mxGeometry x="440" y="40" width="120" height="60" as="geometry"/>
                </mxCell>
                <mxCell id="17" value="&lt;div style=&quot;color: rgb(212, 212, 212); background-color: rgb(30, 30, 30); font-family: consolas, &amp;quot;courier new&amp;quot;, monospace; font-weight: normal; font-size: 14px; line-height: 19px;&quot;&gt;&lt;div&gt;&lt;span style=&quot;color: #4ec9b0&quot;&gt;OneToOneField&lt;/span&gt;&lt;/div&gt;&lt;/div&gt;" style="text;whiteSpace=wrap;html=1;" vertex="1" parent="1">
                    <mxGeometry x="300" y="30" width="110" height="30" as="geometry"/>
                </mxCell>
                <mxCell id="20" value="admin view only" style="text;whiteSpace=wrap;html=1;" vertex="1" parent="1">
                    <mxGeometry x="110" width="90" height="30" as="geometry"/>
                </mxCell>
                <mxCell id="21" value="GUI" style="text;html=1;align=center;verticalAlign=middle;resizable=0;points=[];autosize=1;strokeColor=none;fillColor=none;" vertex="1" parent="1">
                    <mxGeometry x="450" y="5" width="40" height="20" as="geometry"/>
                </mxCell>
                <mxCell id="26" value="" style="shape=flexArrow;endArrow=classic;html=1;fontFamily=Helvetica;fontSize=12;fontColor=default;entryX=0;entryY=0.5;entryDx=0;entryDy=0;exitX=1;exitY=0.5;exitDx=0;exitDy=0;" edge="1" parent="1" source="11" target="5">
                    <mxGeometry width="50" height="50" relative="1" as="geometry">
                        <mxPoint x="590" y="130" as="sourcePoint"/>
                        <mxPoint x="440" y="180" as="targetPoint"/>
                    </mxGeometry>
                </mxCell>
                <mxCell id="27" value="" style="shape=flexArrow;endArrow=classic;html=1;fontFamily=Helvetica;fontSize=12;fontColor=default;exitX=0.5;exitY=0;exitDx=0;exitDy=0;entryX=0.5;entryY=1;entryDx=0;entryDy=0;" edge="1" parent="1" source="7" target="5">
                    <mxGeometry width="50" height="50" relative="1" as="geometry">
                        <mxPoint x="390" y="230" as="sourcePoint"/>
                        <mxPoint x="440" y="180" as="targetPoint"/>
                    </mxGeometry>
                </mxCell>
                <mxCell id="28" value="&lt;div style=&quot;color: rgb(212, 212, 212); background-color: rgb(30, 30, 30); font-family: consolas, &amp;quot;courier new&amp;quot;, monospace; font-weight: normal; font-size: 14px; line-height: 19px;&quot;&gt;&lt;div&gt;&lt;span style=&quot;color: #4ec9b0&quot;&gt;ForeignKey&lt;/span&gt;&lt;/div&gt;&lt;/div&gt;" style="text;whiteSpace=wrap;html=1;fontSize=12;fontFamily=Helvetica;fontColor=default;" vertex="1" parent="1">
                    <mxGeometry x="227" y="185" width="100" height="30" as="geometry"/>
                </mxCell>
                <mxCell id="29" value="&lt;div style=&quot;color: rgb(212, 212, 212); background-color: rgb(30, 30, 30); font-family: consolas, &amp;quot;courier new&amp;quot;, monospace; font-weight: normal; font-size: 14px; line-height: 19px;&quot;&gt;&lt;div&gt;&lt;span style=&quot;color: #4ec9b0&quot;&gt;ForeignKey&lt;/span&gt;&lt;/div&gt;&lt;/div&gt;" style="text;whiteSpace=wrap;html=1;fontSize=12;fontFamily=Helvetica;fontColor=default;" vertex="1" parent="1">
                    <mxGeometry x="350" y="125" width="90" height="30" as="geometry"/>
                </mxCell>
                <mxCell id="30" value="" style="shape=flexArrow;endArrow=classic;html=1;fontFamily=Helvetica;fontSize=12;fontColor=default;entryX=0.056;entryY=0.131;entryDx=0;entryDy=0;exitX=1;exitY=0.5;exitDx=0;exitDy=0;entryPerimeter=0;" edge="1" parent="1" source="9" target="10">
                    <mxGeometry width="50" height="50" relative="1" as="geometry">
                        <mxPoint x="260" y="200" as="sourcePoint"/>
                        <mxPoint x="440" y="180" as="targetPoint"/>
                    </mxGeometry>
                </mxCell>
                <mxCell id="31" value="" style="shape=flexArrow;endArrow=classic;html=1;fontFamily=Helvetica;fontSize=12;fontColor=default;exitX=0.5;exitY=1;exitDx=0;exitDy=0;entryX=0.147;entryY=-0.025;entryDx=0;entryDy=0;entryPerimeter=0;" edge="1" parent="1" source="11" target="35">
                    <mxGeometry width="50" height="50" relative="1" as="geometry">
                        <mxPoint x="390" y="230" as="sourcePoint"/>
                        <mxPoint x="440" y="180" as="targetPoint"/>
                    </mxGeometry>
                </mxCell>
                <mxCell id="69" value="Match" style="swimlane;rounded=0;glass=0;sketch=0;fontFamily=Helvetica;fontSize=12;fontColor=default;strokeWidth=4;fillColor=none;gradientColor=none;html=1;" vertex="1" parent="1">
                    <mxGeometry x="227" y="460" width="200" height="200" as="geometry"/>
                </mxCell>
                <mxCell id="70" value="&amp;nbsp;Select Team A" style="text;html=1;align=center;verticalAlign=middle;resizable=0;points=[];autosize=1;strokeColor=none;fillColor=none;fontSize=12;fontFamily=Helvetica;fontColor=default;" vertex="1" parent="69">
                    <mxGeometry x="6.5" y="30" width="100" height="20" as="geometry"/>
                </mxCell>
                <mxCell id="71" value="&amp;nbsp;Select Team B" style="text;html=1;align=center;verticalAlign=middle;resizable=0;points=[];autosize=1;strokeColor=none;fillColor=none;fontSize=12;fontFamily=Helvetica;fontColor=default;" vertex="1" parent="69">
                    <mxGeometry x="6.5" y="50" width="100" height="20" as="geometry"/>
                </mxCell>
                <mxCell id="76" value="Match" style="text;html=1;align=center;verticalAlign=middle;resizable=0;points=[];autosize=1;strokeColor=none;fillColor=none;fontSize=12;fontFamily=Helvetica;fontColor=default;" vertex="1" parent="69">
                    <mxGeometry x="73" y="80" width="50" height="20" as="geometry"/>
                </mxCell>
                <mxCell id="80" value="TEAM B" style="text;html=1;align=center;verticalAlign=middle;resizable=0;points=[];autosize=1;strokeColor=none;fillColor=none;fontSize=12;fontFamily=Helvetica;fontColor=default;" vertex="1" parent="69">
                    <mxGeometry x="26.5" y="150" width="60" height="20" as="geometry"/>
                </mxCell>
                <mxCell id="79" value="TEAM A&amp;nbsp;" style="text;html=1;align=center;verticalAlign=middle;resizable=0;points=[];autosize=1;strokeColor=none;fillColor=none;fontSize=12;fontFamily=Helvetica;fontColor=default;" vertex="1" parent="69">
                    <mxGeometry x="26.5" y="115" width="60" height="20" as="geometry"/>
                </mxCell>
                <mxCell id="81" value="0" style="text;html=1;align=center;verticalAlign=middle;resizable=0;points=[];autosize=1;strokeColor=none;fillColor=none;fontSize=12;fontFamily=Helvetica;fontColor=default;" vertex="1" parent="69">
                    <mxGeometry x="106.5" y="115" width="20" height="20" as="geometry"/>
                </mxCell>
                <mxCell id="82" value="0" style="text;html=1;align=center;verticalAlign=middle;resizable=0;points=[];autosize=1;strokeColor=none;fillColor=none;fontSize=12;fontFamily=Helvetica;fontColor=default;" vertex="1" parent="69">
                    <mxGeometry x="106.5" y="150" width="20" height="20" as="geometry"/>
                </mxCell>
                <mxCell id="83" value="2" style="text;html=1;align=center;verticalAlign=middle;resizable=0;points=[];autosize=1;strokeColor=none;fillColor=none;fontSize=12;fontFamily=Helvetica;fontColor=default;" vertex="1" parent="69">
                    <mxGeometry x="143" y="115" width="20" height="20" as="geometry"/>
                </mxCell>
                <mxCell id="84" value="3" style="text;html=1;align=center;verticalAlign=middle;resizable=0;points=[];autosize=1;strokeColor=none;fillColor=none;fontSize=12;fontFamily=Helvetica;fontColor=default;" vertex="1" parent="69">
                    <mxGeometry x="177" y="115" width="20" height="20" as="geometry"/>
                </mxCell>
                <mxCell id="85" value="3" style="text;html=1;align=center;verticalAlign=middle;resizable=0;points=[];autosize=1;strokeColor=none;fillColor=none;fontSize=12;fontFamily=Helvetica;fontColor=default;" vertex="1" parent="69">
                    <mxGeometry x="143" y="150" width="20" height="20" as="geometry"/>
                </mxCell>
                <mxCell id="86" value="2" style="text;html=1;align=center;verticalAlign=middle;resizable=0;points=[];autosize=1;strokeColor=none;fillColor=none;fontSize=12;fontFamily=Helvetica;fontColor=default;" vertex="1" parent="69">
                    <mxGeometry x="177" y="150" width="20" height="20" as="geometry"/>
                </mxCell>
                <mxCell id="74" value="" style="edgeStyle=segmentEdgeStyle;endArrow=classic;html=1;fontFamily=Helvetica;fontSize=12;fontColor=default;shape=link;exitX=1.008;exitY=0.583;exitDx=0;exitDy=0;exitPerimeter=0;" edge="1" parent="1" source="70">
                    <mxGeometry width="50" height="50" relative="1" as="geometry">
                        <mxPoint x="430" y="460" as="sourcePoint"/>
                        <mxPoint x="363" y="370" as="targetPoint"/>
                    </mxGeometry>
                </mxCell>
                <mxCell id="75" value="" style="edgeStyle=segmentEdgeStyle;endArrow=classic;html=1;fontFamily=Helvetica;fontSize=12;fontColor=default;shape=link;exitX=1.022;exitY=0.55;exitDx=0;exitDy=0;exitPerimeter=0;entryX=0.263;entryY=0.992;entryDx=0;entryDy=0;entryPerimeter=0;" edge="1" parent="1" source="71" target="53">
                    <mxGeometry width="50" height="50" relative="1" as="geometry">
                        <mxPoint x="344.29999999999995" y="521.66" as="sourcePoint"/>
                        <mxPoint x="373.2270000000001" y="376.32000000000005" as="targetPoint"/>
                    </mxGeometry>
                </mxCell>
                <mxCell id="77" value="" style="endArrow=classic;html=1;fontFamily=Helvetica;fontSize=12;fontColor=default;shape=link;exitX=1.02;exitY=0.55;exitDx=0;exitDy=0;exitPerimeter=0;entryX=0.356;entryY=1.003;entryDx=0;entryDy=0;entryPerimeter=0;" edge="1" parent="1" source="76" target="34">
                    <mxGeometry relative="1" as="geometry">
                        <mxPoint x="400" y="440" as="sourcePoint"/>
                        <mxPoint x="500" y="440" as="targetPoint"/>
                        <Array as="points">
                            <mxPoint x="442" y="551"/>
                        </Array>
                    </mxGeometry>
                </mxCell>
                <mxCell id="78" value="&amp;nbsp;+1" style="edgeLabel;resizable=0;html=1;align=center;verticalAlign=middle;rounded=0;glass=0;sketch=0;fontFamily=Helvetica;fontSize=12;fontColor=default;strokeWidth=4;fillColor=none;gradientColor=none;" connectable="0" vertex="1" parent="77">
                    <mxGeometry relative="1" as="geometry"/>
                </mxCell>
            </root>
        </mxGraphModel>
    </diagram>
</mxfile>